<svg xmlns="http://www.w3.org/2000/svg" xmlns:xlink="http://www.w3.org/1999/xlink" width="500" zoomAndPan="magnify" viewBox="0 0 375 374.999991" height="500" preserveAspectRatio="xMidYMid meet" version="1.0"><defs><g/><clipPath id="a1b774e4f4"><path d="M 15 132.8125 L 161.367188 132.8125 L 161.367188 276.0625 L 15 276.0625 Z M 15 132.8125 " clip-rule="nonzero"/></clipPath><clipPath id="da3f1794f7"><path d="M 15 144 L 127 144 L 127 276.0625 L 15 276.0625 Z M 15 144 " clip-rule="nonzero"/></clipPath><clipPath id="1f3e55208b"><path d="M 19 132.8125 L 161.367188 132.8125 L 161.367188 272 L 19 272 Z M 19 132.8125 " clip-rule="nonzero"/></clipPath></defs><rect x="-37.5" width="450" fill="#ffffff" y="-37.499999" height="449.999989" fill-opacity="1"/><rect x="-37.5" width="450" fill="#efeeeb" y="-37.499999" height="449.999989" fill-opacity="1"/><g fill="#1e1e1e" fill-opacity="1"><g transform="translate(158.707244, 237.27741)"><g><path d="M 19.296875 -105.984375 L 19.296875 0 L 9.5 0 L 9.5 -105.984375 Z M 19.296875 -105.984375 "/></g></g></g><g fill="#1e1e1e" fill-opacity="1"><g transform="translate(175.699236, 237.27741)"><g><path d="M 47.234375 2.015625 C 39.742188 2.015625 32.953125 0.21875 26.859375 -3.375 C 20.765625 -6.976562 15.988281 -11.851562 12.53125 -18 C 9.070312 -24.144531 7.34375 -30.816406 7.34375 -38.015625 C 7.34375 -45.210938 9.070312 -51.929688 12.53125 -58.171875 C 15.988281 -64.410156 20.765625 -69.351562 26.859375 -73 C 32.953125 -76.65625 39.742188 -78.484375 47.234375 -78.484375 C 54.722656 -78.484375 61.515625 -76.65625 67.609375 -73 C 73.703125 -69.351562 78.476562 -64.410156 81.9375 -58.171875 C 85.394531 -51.929688 87.125 -45.210938 87.125 -38.015625 C 87.125 -30.816406 85.394531 -24.144531 81.9375 -18 C 78.476562 -11.851562 73.703125 -6.976562 67.609375 -3.375 C 61.515625 0.21875 54.722656 2.015625 47.234375 2.015625 Z M 47.234375 -7.484375 C 52.796875 -7.484375 57.859375 -8.851562 62.421875 -11.59375 C 66.984375 -14.332031 70.5625 -18.023438 73.15625 -22.671875 C 75.75 -27.328125 77.046875 -32.394531 77.046875 -37.875 C 77.046875 -43.4375 75.695312 -48.59375 73 -53.34375 C 70.3125 -58.101562 66.6875 -61.894531 62.125 -64.71875 C 57.570312 -67.550781 52.609375 -68.96875 47.234375 -68.96875 C 41.859375 -68.96875 36.890625 -67.550781 32.328125 -64.71875 C 27.765625 -61.894531 24.140625 -58.101562 21.453125 -53.34375 C 18.765625 -48.59375 17.421875 -43.4375 17.421875 -37.875 C 17.421875 -32.300781 18.71875 -27.210938 21.3125 -22.609375 C 23.90625 -18.003906 27.457031 -14.332031 31.96875 -11.59375 C 36.476562 -8.851562 41.566406 -7.484375 47.234375 -7.484375 Z M 47.234375 -7.484375 "/></g></g></g><g fill="#1e1e1e" fill-opacity="1"><g transform="translate(258.211202, 237.27741)"><g><path d="M 47.515625 29.8125 C 40.410156 29.8125 34.3125 28.875 29.21875 27 C 24.132812 25.125 19.9375 22.457031 16.625 19 C 13.3125 15.550781 10.457031 11.234375 8.0625 6.046875 L 18.71875 6.046875 C 21.601562 11.140625 25.347656 14.882812 29.953125 17.28125 C 34.554688 19.675781 40.21875 20.875 46.9375 20.875 C 56.539062 20.875 63.929688 18.453125 69.109375 13.609375 C 74.296875 8.765625 76.890625 1.585938 76.890625 -7.921875 L 76.890625 -14.546875 C 73.148438 -9.742188 68.613281 -6.117188 63.28125 -3.671875 C 57.957031 -1.222656 52.269531 0 46.21875 0 C 39.21875 0 32.71875 -1.65625 26.71875 -4.96875 C 20.71875 -8.28125 15.941406 -12.882812 12.390625 -18.78125 C 8.835938 -24.6875 7.0625 -31.335938 7.0625 -38.734375 C 7.0625 -46.128906 8.882812 -52.847656 12.53125 -58.890625 C 16.175781 -64.941406 21.019531 -69.71875 27.0625 -73.21875 C 33.113281 -76.726562 39.5 -78.484375 46.21875 -78.484375 C 52.65625 -78.484375 58.296875 -77.207031 63.140625 -74.65625 C 67.992188 -72.113281 72.578125 -68.300781 76.890625 -63.21875 L 76.890625 -76.46875 L 86.828125 -76.46875 L 86.828125 -10.515625 C 86.828125 2.347656 83.5625 12.285156 77.03125 19.296875 C 70.507812 26.304688 60.671875 29.8125 47.515625 29.8125 Z M 48.09375 -9.5 C 53.664062 -9.5 58.660156 -10.722656 63.078125 -13.171875 C 67.492188 -15.617188 70.972656 -19.050781 73.515625 -23.46875 C 76.054688 -27.882812 77.328125 -33.019531 77.328125 -38.875 C 77.328125 -44.832031 75.984375 -50.085938 73.296875 -54.640625 C 70.609375 -59.203125 67.007812 -62.726562 62.5 -65.21875 C 57.988281 -67.71875 53.09375 -68.96875 47.8125 -68.96875 C 42.144531 -68.96875 36.984375 -67.625 32.328125 -64.9375 C 27.671875 -62.25 23.972656 -58.550781 21.234375 -53.84375 C 18.503906 -49.144531 17.140625 -43.914062 17.140625 -38.15625 C 17.140625 -32.976562 18.335938 -28.203125 20.734375 -23.828125 C 23.140625 -19.460938 26.664062 -15.984375 31.3125 -13.390625 C 35.96875 -10.796875 41.5625 -9.5 48.09375 -9.5 Z M 48.09375 -9.5 "/></g></g></g><g fill="#1e1e1e" fill-opacity="1"><g transform="translate(165.877069, 274.272608)"><g><path d="M 8.921875 -25.125 C 13.492188 -25.125 16.953125 -24.070312 19.296875 -21.96875 C 21.640625 -19.875 22.8125 -16.75 22.8125 -12.59375 C 22.8125 -8.1875 21.640625 -4.984375 19.296875 -2.984375 C 16.953125 -0.992188 13.519531 0 9 0 L 2.875 0 L 2.875 -25.125 Z M 9.828125 -4.6875 C 12.472656 -4.6875 14.492188 -5.335938 15.890625 -6.640625 C 17.285156 -7.953125 17.984375 -9.972656 17.984375 -12.703125 C 17.984375 -14.359375 17.632812 -15.765625 16.9375 -16.921875 C 16.238281 -18.078125 15.234375 -18.953125 13.921875 -19.546875 C 12.617188 -20.140625 11.070312 -20.4375 9.28125 -20.4375 L 7.671875 -20.4375 L 7.671875 -4.6875 Z M 9.828125 -4.6875 "/></g></g></g><g fill="#1e1e1e" fill-opacity="1"><g transform="translate(190.301552, 274.272608)"><g><path d="M 19.25 0 L 17.328125 -5.1875 L 6.890625 -5.1875 L 4.96875 0 L 0 0 L 9.6875 -25.125 L 14.53125 -25.125 L 24.21875 0 Z M 8.6875 -9.875 L 15.578125 -9.875 L 12.109375 -19.109375 Z M 8.6875 -9.875 "/></g></g></g><g fill="#1e1e1e" fill-opacity="1"><g transform="translate(214.516081, 274.272608)"><g><path d="M 2.875 -25.125 L 7.671875 -25.125 L 7.671875 0 L 2.875 0 Z M 2.875 -25.125 "/></g></g></g><g fill="#1e1e1e" fill-opacity="1"><g transform="translate(225.048707, 274.272608)"><g><path d="M 7.671875 -25.125 L 7.671875 -4.546875 L 14.625 -4.546875 L 14.625 0 L 2.875 0 L 2.875 -25.125 Z M 7.671875 -25.125 "/></g></g></g><g fill="#1e1e1e" fill-opacity="1"><g transform="translate(240.445233, 274.272608)"><g><path d="M 7.765625 -10.890625 L 0.34375 -25.125 L 5.5 -25.125 L 10.1875 -15.640625 L 14.8125 -25.125 L 19.921875 -25.125 L 12.5625 -10.890625 L 12.5625 0 L 7.765625 0 Z M 7.765625 -10.890625 "/></g></g></g><g clip-path="url(#a1b774e4f4)"><path fill="#000000" d="M 137.324219 203.878906 L 135.269531 205.835938 C 136.511719 207.652344 137.65625 209.5625 138.707031 211.617188 C 148.644531 230.960938 145.300781 252.546875 131.304688 259.710938 C 130.542969 260.09375 129.777344 260.429688 128.964844 260.714844 L 129.253906 262.480469 L 129.253906 262.53125 C 129.253906 264.871094 128.296875 266.972656 126.816406 268.5 C 125.289062 270.648438 122.996094 272.511719 120.226562 274.375 C 119.84375 274.660156 119.414062 274.898438 118.984375 275.140625 C 117.3125 275.855469 115.449219 276.238281 113.632812 276.238281 L 39.84375 276.238281 C 35.785156 276.238281 32.34375 273.226562 31.867188 269.214844 L 31.484375 266.113281 L 15.296875 161.898438 C 14.386719 156.308594 16.25 150.675781 20.261719 146.710938 C 21.074219 145.945312 21.933594 145.277344 22.746094 144.800781 C 24.128906 143.796875 25.851562 143.175781 27.710938 143.175781 L 48.632812 143.175781 L 48.441406 142.21875 C 48.441406 141.597656 50.066406 139.738281 51.117188 139.210938 C 51.304688 138.542969 51.976562 138.066406 52.691406 138.160156 L 56.082031 138.160156 C 56.128906 138.160156 56.128906 138.113281 56.179688 138.113281 C 57.5625 135.007812 62.816406 132.8125 68.785156 132.8125 C 74.804688 132.8125 80.058594 135.054688 81.492188 138.160156 L 85.886719 138.160156 C 86.699219 138.066406 87.367188 138.636719 87.507812 139.449219 L 88.273438 143.222656 L 103.460938 143.222656 C 106.566406 143.222656 109.242188 144.894531 110.769531 147.332031 C 113.730469 148.191406 116.59375 149.765625 119.078125 152.105469 C 122.710938 155.496094 125 159.941406 125.480469 164.621094 C 125.957031 169.300781 124.621094 173.648438 121.609375 176.847656 C 120.175781 178.421875 118.410156 179.617188 116.453125 180.382812 C 116.453125 180.382812 116.453125 180.382812 116.40625 180.382812 L 117.980469 190.363281 C 123.28125 192.941406 128.390625 197.050781 132.738281 202.398438 L 134.363281 200.824219 L 134.265625 194.660156 L 151.460938 176.941406 L 151.222656 186.78125 L 161.253906 186.828125 L 144.488281 203.878906 Z M 137.324219 203.878906 " fill-opacity="1" fill-rule="nonzero"/></g><g clip-path="url(#da3f1794f7)"><path fill="#efeeeb" d="M 44.90625 271.078125 C 40.226562 271.078125 36.40625 267.257812 36.359375 262.578125 L 19.164062 151.820312 L 19.164062 151.773438 C 19.164062 148.90625 20.597656 146.375 22.746094 144.847656 C 21.933594 145.277344 21.074219 145.945312 20.261719 146.757812 C 16.203125 150.675781 14.386719 156.359375 15.296875 161.898438 L 31.484375 266.0625 L 31.867188 269.167969 C 32.394531 273.179688 35.785156 276.191406 39.84375 276.191406 L 113.585938 276.191406 C 115.449219 276.191406 117.265625 275.855469 118.9375 275.089844 C 119.367188 274.851562 119.796875 274.613281 120.175781 274.328125 C 122.949219 272.464844 125.242188 270.601562 126.769531 268.453125 C 125.242188 270.027344 123.042969 271.03125 120.703125 271.03125 L 44.90625 271.03125 Z M 44.90625 271.078125 " fill-opacity="1" fill-rule="nonzero"/></g><path fill="#efeeeb" d="M 57.277344 186.972656 L 86.554688 186.972656 L 86.554688 187.925781 L 57.277344 187.925781 Z M 57.277344 186.972656 " fill-opacity="1" fill-rule="nonzero"/><path fill="#efeeeb" d="M 57.277344 170.734375 L 86.554688 170.734375 L 86.554688 171.6875 L 57.277344 171.6875 Z M 57.277344 170.734375 " fill-opacity="1" fill-rule="nonzero"/><path fill="#efeeeb" d="M 78.339844 205.503906 L 59.519531 205.503906 L 59.519531 206.457031 L 78.003906 206.457031 C 78.148438 206.125 78.242188 205.835938 78.339844 205.503906 Z M 78.339844 205.503906 " fill-opacity="1" fill-rule="nonzero"/><path fill="#efeeeb" d="M 77.144531 225.371094 L 62.242188 225.371094 L 62.242188 226.328125 L 77.289062 226.328125 C 77.242188 226.039062 77.191406 225.707031 77.144531 225.371094 Z M 77.144531 225.371094 " fill-opacity="1" fill-rule="nonzero"/><path fill="#efeeeb" d="M 87.460938 248.488281 L 66.253906 248.488281 L 66.253906 249.445312 L 88.226562 249.445312 C 87.988281 249.109375 87.75 248.824219 87.460938 248.488281 Z M 87.460938 248.488281 " fill-opacity="1" fill-rule="nonzero"/><path fill="#efeeeb" d="M 52.214844 140.738281 L 52.738281 143.269531 L 52.835938 143.75 L 52.929688 144.226562 L 53.3125 146.183594 L 54.363281 151.34375 C 54.410156 151.675781 54.648438 151.867188 54.9375 151.820312 L 88.367188 151.820312 C 88.464844 151.820312 88.511719 151.820312 88.609375 151.773438 C 88.75 151.726562 88.894531 151.582031 88.941406 151.4375 L 88.941406 151.34375 L 88.558594 149.527344 L 88.367188 148.621094 L 87.460938 144.179688 L 87.367188 143.699219 L 87.269531 143.222656 L 86.554688 139.59375 C 86.507812 139.257812 86.265625 139.066406 85.980469 139.117188 L 80.871094 139.117188 L 80.773438 138.78125 C 79.675781 135.914062 74.660156 133.765625 68.785156 133.765625 C 64.152344 133.765625 60.046875 135.105469 57.992188 137.109375 C 57.707031 137.398438 57.46875 137.636719 57.277344 137.96875 C 57.132812 138.207031 56.988281 138.449219 56.847656 138.734375 C 56.847656 138.78125 56.800781 138.78125 56.800781 138.828125 L 56.703125 139.164062 L 52.5 139.164062 C 52.308594 139.164062 52.117188 139.210938 52.023438 139.402344 C 51.976562 139.449219 51.976562 139.496094 51.925781 139.59375 L 52.023438 140.070312 Z M 52.214844 140.738281 " fill-opacity="1" fill-rule="nonzero"/><path fill="#efeeeb" d="M 42.949219 192.417969 C 44.285156 192.464844 45.480469 191.988281 46.292969 191.128906 C 47.390625 189.933594 47.628906 188.214844 47.105469 186.589844 C 46.914062 186.828125 46.722656 187.019531 46.484375 187.257812 C 45.527344 188.308594 44.667969 189.457031 43.808594 190.554688 C 43.332031 191.175781 42.519531 191.03125 42.039062 190.316406 C 41.660156 189.742188 41.324219 189.167969 40.894531 188.691406 C 40.511719 188.261719 40.082031 187.878906 39.652344 187.546875 C 39.507812 187.402344 39.367188 187.210938 39.367188 187.066406 C 39.414062 186.589844 39.507812 186.066406 39.652344 185.585938 C 39.699219 185.394531 39.890625 185.300781 40.082031 185.347656 C 40.128906 185.347656 40.128906 185.347656 40.179688 185.394531 C 41.421875 185.921875 41.992188 186.972656 42.613281 188.070312 C 42.710938 188.261719 42.949219 188.355469 43.1875 188.261719 C 43.1875 188.261719 43.234375 188.261719 43.234375 188.214844 C 43.902344 187.59375 44.574219 186.972656 45.191406 186.398438 C 45.625 186.015625 46.054688 185.636719 46.484375 185.300781 C 46.242188 184.917969 45.910156 184.535156 45.574219 184.203125 C 44.523438 183.199219 43.1875 182.625 41.851562 182.578125 C 41.800781 182.578125 41.707031 182.578125 41.660156 182.578125 C 40.417969 182.578125 39.269531 183.054688 38.507812 183.867188 C 36.789062 185.730469 37.121094 188.882812 39.320312 190.886719 C 40.273438 191.796875 41.609375 192.371094 42.949219 192.417969 Z M 42.949219 192.417969 " fill-opacity="1" fill-rule="nonzero"/><path fill="#efeeeb" d="M 42.949219 205.550781 C 42.996094 205.550781 42.996094 205.550781 43.042969 205.597656 C 43.710938 205.886719 44.191406 206.363281 44.621094 206.886719 C 44.953125 207.320312 45.191406 207.796875 45.480469 208.273438 C 45.527344 208.417969 45.671875 208.464844 45.8125 208.464844 C 45.910156 208.464844 45.957031 208.464844 46.054688 208.417969 C 46.054688 208.417969 46.101562 208.417969 46.101562 208.367188 C 46.769531 207.75 47.4375 207.128906 48.058594 206.554688 C 48.394531 206.21875 48.773438 205.933594 49.15625 205.597656 C 48.964844 205.3125 48.679688 205.027344 48.441406 204.785156 C 47.484375 203.878906 46.292969 203.355469 45.097656 203.210938 C 44.953125 203.210938 44.859375 203.164062 44.714844 203.164062 C 44.523438 203.164062 44.332031 203.164062 44.140625 203.164062 C 43.042969 203.257812 42.089844 203.6875 41.371094 204.453125 C 39.652344 206.316406 39.988281 209.46875 42.183594 211.472656 C 43.140625 212.382812 44.332031 212.90625 45.527344 213.050781 C 45.671875 213.050781 45.765625 213.097656 45.910156 213.097656 C 46.101562 213.097656 46.292969 213.097656 46.484375 213.097656 C 47.582031 213 48.535156 212.570312 49.253906 211.808594 C 50.445312 210.519531 50.636719 208.65625 49.96875 206.9375 C 49.824219 207.128906 49.636719 207.269531 49.492188 207.460938 C 48.535156 208.511719 47.675781 209.660156 46.816406 210.757812 C 46.671875 210.949219 46.484375 211.042969 46.292969 211.089844 C 45.957031 211.1875 45.574219 211.042969 45.289062 210.757812 C 45.191406 210.660156 45.144531 210.613281 45.097656 210.519531 C 44.714844 209.945312 44.382812 209.371094 43.953125 208.894531 C 43.570312 208.464844 43.140625 208.082031 42.710938 207.75 C 42.566406 207.605469 42.421875 207.414062 42.421875 207.269531 C 42.472656 206.792969 42.566406 206.269531 42.710938 205.789062 C 42.613281 205.597656 42.757812 205.503906 42.949219 205.550781 Z M 42.949219 205.550781 " fill-opacity="1" fill-rule="nonzero"/><path fill="#efeeeb" d="M 48.394531 233.921875 C 48.535156 233.921875 48.632812 233.96875 48.773438 233.96875 C 48.964844 233.96875 49.15625 233.96875 49.347656 233.96875 C 50.445312 233.875 51.402344 233.445312 52.117188 232.679688 C 53.839844 230.816406 53.503906 227.664062 51.304688 225.660156 C 50.351562 224.75 49.15625 224.226562 47.964844 224.082031 C 47.820312 224.082031 47.722656 224.035156 47.582031 224.035156 C 47.535156 224.035156 47.4375 224.035156 47.390625 224.035156 C 47.246094 224.035156 47.105469 224.035156 46.960938 224.035156 C 45.863281 224.128906 44.90625 224.558594 44.191406 225.324219 C 42.472656 227.1875 42.804688 230.339844 45.003906 232.34375 C 46.003906 233.253906 47.199219 233.777344 48.394531 233.921875 Z M 48.394531 233.921875 " fill-opacity="1" fill-rule="nonzero"/><path fill="#efeeeb" d="M 55.03125 253.40625 C 56.75 251.546875 56.417969 248.394531 54.21875 246.386719 C 53.167969 245.382812 51.832031 244.8125 50.496094 244.761719 C 50.445312 244.761719 50.351562 244.761719 50.304688 244.761719 C 49.0625 244.761719 47.914062 245.242188 47.152344 246.050781 C 45.433594 247.914062 45.765625 251.066406 47.964844 253.074219 C 50.160156 255.128906 53.3125 255.269531 55.03125 253.40625 Z M 55.03125 253.40625 " fill-opacity="1" fill-rule="nonzero"/><path fill="#efeeeb" d="M 89.46875 249.445312 C 90.230469 250.351562 90.996094 251.210938 91.808594 252.023438 C 95.101562 255.414062 98.78125 258.183594 102.695312 260.191406 C 110.050781 263.960938 117.40625 264.535156 123.664062 261.957031 C 122.898438 262.050781 122.136719 262.101562 121.371094 262.101562 C 112.582031 262.101562 103.078125 257.277344 95.582031 248.917969 C 95.4375 248.773438 95.34375 248.632812 95.199219 248.488281 C 93.242188 246.242188 91.378906 243.761719 89.753906 241.039062 C 89.660156 240.847656 89.515625 240.65625 89.417969 240.464844 C 89.371094 240.417969 89.371094 240.320312 89.324219 240.273438 C 88.847656 239.414062 88.367188 238.601562 87.890625 237.695312 C 85.980469 233.96875 84.546875 230.148438 83.59375 226.328125 C 83.496094 225.992188 83.449219 225.707031 83.355469 225.371094 C 81.824219 218.683594 81.777344 212.191406 83.117188 206.457031 C 83.210938 206.125 83.257812 205.835938 83.355469 205.503906 C 84.785156 200.105469 87.507812 195.472656 91.378906 192.226562 C 90.898438 192.417969 90.46875 192.609375 89.992188 192.847656 C 85.074219 195.378906 81.445312 199.773438 79.34375 205.503906 C 79.246094 205.835938 79.152344 206.125 79.007812 206.457031 C 78.484375 208.128906 78.050781 209.851562 77.765625 211.710938 C 77.097656 216.105469 77.242188 220.738281 78.050781 225.417969 C 78.101562 225.753906 78.195312 226.039062 78.242188 226.375 C 79.152344 230.863281 80.726562 235.355469 82.972656 239.699219 C 83.164062 240.035156 83.304688 240.367188 83.496094 240.703125 C 83.546875 240.796875 83.59375 240.847656 83.640625 240.941406 C 85.121094 243.664062 86.792969 246.195312 88.65625 248.535156 C 88.941406 248.824219 89.230469 249.109375 89.46875 249.445312 Z M 89.46875 249.445312 " fill-opacity="1" fill-rule="nonzero"/><path fill="#efeeeb" d="M 137.847656 212.09375 C 136.847656 210.136719 135.746094 208.273438 134.554688 206.554688 L 130.734375 210.183594 L 130.683594 210.230469 C 131.496094 211.472656 132.261719 212.761719 132.929688 214.101562 C 134.984375 218.066406 136.273438 222.171875 136.941406 226.183594 C 137.226562 228 137.371094 229.765625 137.417969 231.484375 C 137.515625 240.320312 134.027344 247.914062 127.484375 251.402344 C 127.390625 251.449219 127.34375 251.496094 127.246094 251.546875 C 127.152344 251.59375 127.101562 251.59375 127.007812 251.640625 C 126.910156 251.6875 126.816406 251.734375 126.722656 251.785156 C 126.671875 251.832031 126.625 251.832031 126.578125 251.878906 C 118.265625 255.652344 107.761719 252.023438 99.878906 243.425781 C 99.6875 243.234375 99.496094 242.996094 99.304688 242.804688 C 99.113281 242.613281 98.972656 242.421875 98.78125 242.183594 C 96.824219 239.84375 95.054688 237.214844 93.574219 234.304688 C 92.238281 231.675781 91.234375 229.050781 90.46875 226.375 C 90.375 226.039062 90.28125 225.753906 90.230469 225.417969 C 87.128906 213.144531 90.46875 201.394531 99.257812 196.859375 C 101.265625 195.808594 103.414062 195.234375 105.660156 195.089844 C 105.847656 195.089844 106.039062 195.089844 106.230469 195.042969 C 106.421875 195.042969 106.613281 195.042969 106.804688 195.042969 C 109.480469 195.042969 112.203125 195.570312 114.925781 196.667969 C 116.070312 197.097656 117.167969 197.671875 118.265625 198.292969 C 118.457031 198.386719 118.601562 198.484375 118.792969 198.578125 C 118.984375 198.671875 119.128906 198.769531 119.316406 198.914062 C 120.082031 199.390625 120.796875 199.867188 121.5625 200.441406 C 122.898438 201.445312 124.238281 202.589844 125.480469 203.832031 C 126.433594 204.785156 127.390625 205.835938 128.25 206.9375 L 128.441406 206.792969 L 132.070312 203.257812 C 128.011719 198.195312 123.1875 194.230469 118.171875 191.652344 C 117.980469 191.558594 117.835938 191.460938 117.644531 191.414062 C 117.457031 191.320312 117.3125 191.222656 117.121094 191.175781 C 115.878906 190.601562 114.636719 190.078125 113.347656 189.695312 C 109.480469 188.453125 105.609375 188.023438 101.933594 188.597656 C 101.742188 188.644531 101.597656 188.644531 101.40625 188.691406 C 101.214844 188.738281 101.074219 188.738281 100.882812 188.789062 C 99.640625 189.027344 98.398438 189.40625 97.203125 189.933594 C 96.679688 190.125 96.203125 190.363281 95.675781 190.648438 C 95.199219 190.886719 94.769531 191.128906 94.339844 191.414062 C 89.371094 194.472656 85.980469 199.535156 84.308594 205.695312 C 84.214844 206.027344 84.117188 206.316406 84.070312 206.648438 C 82.683594 212.332031 82.734375 218.875 84.308594 225.5625 C 84.40625 225.898438 84.453125 226.183594 84.546875 226.519531 C 85.457031 230.148438 86.839844 233.824219 88.703125 237.457031 C 89.230469 238.457031 89.753906 239.414062 90.328125 240.367188 C 90.421875 240.558594 90.566406 240.75 90.660156 240.941406 C 90.757812 241.132812 90.898438 241.324219 90.996094 241.515625 C 98.734375 253.835938 110.53125 261.335938 121.277344 261.335938 C 123.042969 261.335938 124.761719 261.144531 126.433594 260.714844 C 126.910156 260.621094 127.34375 260.476562 127.820312 260.332031 C 127.867188 260.332031 127.914062 260.285156 127.960938 260.285156 C 128.058594 260.238281 128.203125 260.238281 128.296875 260.191406 C 128.34375 260.191406 128.390625 260.140625 128.441406 260.140625 C 128.535156 260.09375 128.632812 260.046875 128.726562 260.046875 C 128.964844 259.949219 129.203125 259.855469 129.394531 259.761719 C 129.875 259.570312 130.304688 259.378906 130.78125 259.140625 C 144.390625 251.925781 147.542969 230.960938 137.847656 212.09375 Z M 137.847656 212.09375 " fill-opacity="1" fill-rule="nonzero"/><path fill="#efeeeb" d="M 121.132812 213.765625 L 121.5625 213.335938 L 124.191406 210.757812 C 123.089844 209.46875 121.898438 208.273438 120.609375 207.269531 C 120.417969 207.128906 120.226562 206.984375 120.035156 206.839844 C 119.84375 206.699219 119.652344 206.554688 119.507812 206.410156 C 118.554688 205.695312 117.597656 205.121094 116.59375 204.597656 C 115.257812 203.878906 113.921875 203.355469 112.582031 203.019531 C 112.34375 202.972656 112.105469 202.875 111.867188 202.828125 C 111.628906 202.78125 111.390625 202.734375 111.152344 202.6875 C 108.140625 202.160156 105.179688 202.445312 102.554688 203.832031 C 94.242188 208.082031 92.332031 220.835938 98.207031 232.34375 C 101.121094 237.980469 105.371094 242.28125 109.910156 244.667969 C 110.625 245.050781 111.34375 245.382812 112.058594 245.671875 C 113.730469 246.339844 115.402344 246.722656 117.074219 246.816406 C 117.789062 246.863281 118.457031 246.863281 119.128906 246.816406 C 120.796875 246.671875 122.375 246.242188 123.855469 245.480469 C 124.285156 245.242188 124.714844 245 125.097656 244.714844 C 125.191406 244.667969 125.242188 244.621094 125.335938 244.570312 C 125.480469 244.476562 125.621094 244.332031 125.765625 244.238281 C 125.910156 244.140625 126.050781 244 126.195312 243.902344 C 132.453125 238.601562 133.457031 227.28125 128.203125 216.964844 C 127.675781 215.964844 127.101562 215.007812 126.53125 214.101562 L 122.710938 217.730469 C 122.949219 218.113281 123.1875 218.542969 123.378906 218.972656 C 126.050781 224.179688 126.386719 229.765625 124.621094 233.777344 C 124.523438 234.015625 124.378906 234.304688 124.238281 234.542969 C 124.09375 234.78125 124 234.972656 123.855469 235.210938 C 123.664062 235.496094 123.472656 235.832031 123.234375 236.070312 C 122.46875 237.027344 121.515625 237.835938 120.417969 238.410156 C 114.78125 241.324219 106.898438 237.3125 102.886719 229.480469 C 98.875 221.648438 100.164062 212.90625 105.847656 209.992188 C 109.574219 208.082031 114.253906 209.179688 118.171875 212.382812 C 118.9375 213 119.652344 213.71875 120.367188 214.484375 L 120.65625 214.195312 Z M 121.132812 213.765625 " fill-opacity="1" fill-rule="nonzero"/><path fill="#efeeeb" d="M 111.101562 219.546875 C 111.960938 219.117188 112.964844 219.164062 113.96875 219.640625 C 114.207031 219.785156 114.445312 219.925781 114.636719 220.070312 L 116.929688 217.824219 C 114.496094 215.4375 111.34375 214.484375 108.90625 215.722656 C 105.5625 217.445312 104.796875 222.601562 107.140625 227.234375 C 109.527344 231.867188 114.160156 234.253906 117.503906 232.535156 C 120.847656 230.816406 121.609375 225.660156 119.269531 221.027344 C 119.269531 221.027344 119.269531 220.976562 119.269531 220.976562 L 116.785156 223.367188 C 116.976562 224.035156 116.976562 224.703125 116.882812 225.371094 C 116.691406 226.46875 116.164062 227.332031 115.304688 227.761719 C 114.925781 227.949219 114.496094 228.046875 114.0625 228.046875 C 113.539062 228.046875 113.011719 227.902344 112.441406 227.617188 C 111.484375 227.140625 110.671875 226.28125 110.101562 225.179688 C 109.527344 224.128906 109.335938 222.9375 109.480469 221.886719 C 109.671875 220.835938 110.242188 219.976562 111.101562 219.546875 Z M 111.101562 219.546875 " fill-opacity="1" fill-rule="nonzero"/><path fill="#efeeeb" d="M 44.523438 166.960938 L 87.269531 166.960938 C 87.03125 165.671875 86.9375 164.382812 86.9375 163.09375 L 43.953125 163.09375 C 43.855469 163.09375 43.710938 163.09375 43.617188 163.140625 C 42.710938 163.28125 42.136719 164.144531 42.28125 165.050781 C 42.472656 166.148438 43.425781 166.960938 44.523438 166.960938 Z M 44.523438 166.960938 " fill-opacity="1" fill-rule="nonzero"/><path fill="#efeeeb" d="M 88.226562 166.960938 C 88.609375 168.824219 89.277344 170.636719 90.28125 172.40625 C 90.328125 172.453125 90.328125 172.5 90.375 172.597656 C 91.089844 173.789062 91.902344 174.9375 92.859375 176.035156 C 93.242188 176.464844 93.621094 176.847656 94.050781 177.277344 C 97.539062 180.523438 101.886719 182.386719 106.328125 182.53125 C 108.191406 182.578125 110.003906 182.339844 111.628906 181.8125 C 112.011719 181.671875 112.394531 181.527344 112.773438 181.382812 C 112.394531 181.433594 111.960938 181.480469 111.53125 181.527344 C 111.101562 181.574219 110.671875 181.574219 110.242188 181.574219 C 110.050781 181.574219 109.8125 181.574219 109.621094 181.574219 C 104.941406 181.433594 100.355469 179.425781 96.726562 176.035156 C 95.484375 174.890625 94.433594 173.597656 93.527344 172.261719 C 92.429688 170.589844 91.570312 168.777344 90.996094 166.960938 C 90.613281 165.671875 90.375 164.382812 90.28125 163.09375 C 89.945312 159.128906 90.996094 155.257812 93.433594 152.203125 C 92.761719 152.679688 92.140625 153.253906 91.519531 153.875 C 89.132812 156.40625 87.9375 159.699219 87.84375 163.09375 C 87.890625 164.382812 87.988281 165.671875 88.226562 166.960938 Z M 88.226562 166.960938 " fill-opacity="1" fill-rule="nonzero"/><path fill="#efeeeb" d="M 96.203125 166.960938 C 96.964844 169.015625 98.253906 170.925781 99.976562 172.597656 C 100.214844 172.835938 100.453125 173.027344 100.738281 173.265625 C 101.027344 173.503906 101.359375 173.742188 101.648438 173.980469 C 104.417969 175.890625 107.570312 176.800781 110.53125 176.558594 C 111.054688 176.511719 111.53125 176.464844 112.058594 176.371094 C 112.394531 176.320312 112.726562 176.226562 113.0625 176.128906 C 113.347656 176.035156 113.632812 175.941406 113.921875 175.84375 C 114.160156 175.75 114.445312 175.652344 114.683594 175.507812 C 114.828125 175.414062 114.972656 175.367188 115.113281 175.269531 C 115.257812 175.175781 115.402344 175.078125 115.542969 175.03125 C 116.308594 174.554688 117.027344 173.980469 117.695312 173.3125 C 120.796875 169.96875 121.277344 165.050781 119.367188 160.65625 C 118.648438 159.03125 117.597656 157.457031 116.214844 156.070312 C 116.070312 155.929688 115.925781 155.785156 115.785156 155.640625 C 114.636719 154.589844 113.394531 153.730469 112.105469 153.109375 C 111.914062 153.015625 111.773438 152.964844 111.582031 152.871094 C 111.390625 152.777344 111.246094 152.726562 111.054688 152.632812 C 108.761719 151.726562 106.328125 151.4375 104.082031 151.820312 C 101.789062 152.203125 99.6875 153.253906 98.0625 155.019531 C 96.011719 157.21875 95.101562 160.179688 95.292969 163.1875 C 95.4375 164.382812 95.722656 165.71875 96.203125 166.960938 Z M 106.375 153.0625 C 107.28125 152.917969 108.140625 153.585938 108.285156 154.496094 L 109.480469 162.851562 L 113.011719 164.476562 L 113.539062 164.714844 L 114.0625 164.953125 L 117.835938 166.675781 C 118.695312 167.054688 119.03125 168.058594 118.648438 168.871094 C 118.363281 169.492188 117.742188 169.824219 117.121094 169.824219 C 116.882812 169.824219 116.644531 169.777344 116.40625 169.683594 L 114.636719 168.871094 L 114.113281 168.632812 L 113.585938 168.394531 L 108.285156 165.957031 L 106.375 165.097656 L 104.941406 154.925781 C 104.847656 154.351562 105.085938 153.828125 105.417969 153.492188 C 105.707031 153.300781 106.039062 153.109375 106.375 153.0625 Z M 106.375 153.0625 " fill-opacity="1" fill-rule="nonzero"/><g clip-path="url(#1f3e55208b)"><path fill="#1e1e1e" d="M 109.429688 162.851562 L 112.964844 164.476562 L 113.492188 164.714844 L 114.015625 164.953125 L 117.789062 166.675781 C 118.648438 167.054688 118.984375 168.058594 118.601562 168.871094 C 118.316406 169.492188 117.695312 169.824219 117.074219 169.824219 C 116.835938 169.824219 116.59375 169.777344 116.355469 169.683594 L 114.589844 168.871094 L 114.0625 168.632812 L 113.539062 168.394531 L 108.238281 165.957031 L 106.328125 165.097656 L 104.894531 154.925781 C 104.796875 154.351562 105.039062 153.828125 105.371094 153.492188 C 105.609375 153.253906 105.945312 153.109375 106.28125 153.0625 C 107.1875 152.917969 108.046875 153.585938 108.191406 154.496094 Z M 54.9375 245.671875 C 57.46875 248.058594 57.851562 251.832031 55.796875 254.078125 C 54.792969 255.175781 53.40625 255.699219 51.925781 255.699219 C 50.351562 255.699219 48.679688 255.078125 47.390625 253.835938 C 44.859375 251.449219 44.476562 247.675781 46.53125 245.429688 C 47.390625 244.523438 48.535156 243.949219 49.824219 243.855469 L 48.585938 234.925781 C 47.054688 234.828125 45.625 234.160156 44.429688 233.0625 C 41.898438 230.671875 41.515625 226.898438 43.570312 224.65625 C 44.429688 223.75 45.574219 223.175781 46.863281 223.078125 L 45.625 214.101562 C 44.09375 214.003906 42.660156 213.335938 41.46875 212.238281 C 38.9375 209.851562 38.554688 206.078125 40.609375 203.832031 C 41.46875 202.925781 42.613281 202.351562 43.902344 202.253906 L 42.660156 193.324219 C 41.132812 193.230469 39.699219 192.558594 38.507812 191.460938 C 35.976562 189.074219 35.59375 185.300781 37.648438 183.054688 C 38.648438 181.957031 40.082031 181.382812 41.707031 181.433594 C 43.28125 181.480469 44.8125 182.148438 46.054688 183.292969 C 46.433594 183.675781 46.769531 184.058594 47.054688 184.488281 C 48.441406 183.4375 49.921875 182.578125 51.6875 182.148438 C 52.214844 182.003906 52.738281 181.957031 53.265625 181.863281 L 53.359375 182.054688 C 53.265625 182.148438 53.167969 182.242188 53.074219 182.292969 C 50.972656 183.054688 49.300781 184.296875 47.820312 185.777344 C 48.679688 187.832031 48.441406 190.171875 46.960938 191.75 C 46.101562 192.65625 44.953125 193.230469 43.664062 193.324219 L 44.90625 202.253906 C 46.433594 202.351562 47.867188 203.019531 49.0625 204.117188 C 49.347656 204.40625 49.636719 204.691406 49.875 205.027344 C 51.304688 203.925781 52.835938 203.019531 54.699219 202.496094 C 55.222656 202.351562 55.75 202.304688 56.273438 202.207031 L 56.371094 202.398438 C 56.273438 202.496094 56.179688 202.589844 56.082031 202.636719 C 53.933594 203.402344 52.214844 204.691406 50.6875 206.269531 C 51.6875 208.417969 51.496094 210.902344 49.96875 212.523438 C 49.109375 213.433594 47.964844 214.003906 46.671875 214.101562 L 47.914062 223.03125 C 49.445312 223.128906 50.875 223.796875 52.070312 224.894531 C 54.601562 227.28125 54.984375 231.054688 52.929688 233.300781 C 52.070312 234.207031 50.925781 234.78125 49.636719 234.875 L 50.875 243.808594 C 52.261719 243.902344 53.742188 244.570312 54.9375 245.671875 Z M 38.457031 183.773438 C 36.738281 185.636719 37.074219 188.789062 39.269531 190.792969 C 40.320312 191.796875 41.660156 192.371094 42.996094 192.417969 C 44.332031 192.464844 45.527344 191.988281 46.339844 191.128906 C 47.4375 189.933594 47.675781 188.214844 47.152344 186.589844 C 46.960938 186.828125 46.769531 187.019531 46.53125 187.257812 C 45.574219 188.308594 44.714844 189.457031 43.855469 190.554688 C 43.378906 191.175781 42.566406 191.03125 42.089844 190.316406 C 41.707031 189.742188 41.371094 189.167969 40.941406 188.691406 C 40.558594 188.261719 40.128906 187.878906 39.699219 187.546875 C 39.558594 187.402344 39.414062 187.210938 39.414062 187.066406 C 39.460938 186.589844 39.558594 186.066406 39.699219 185.585938 C 39.75 185.394531 39.941406 185.300781 40.128906 185.347656 C 40.179688 185.347656 40.179688 185.347656 40.226562 185.394531 C 41.46875 185.921875 42.039062 186.972656 42.660156 188.070312 C 42.757812 188.261719 42.996094 188.355469 43.234375 188.261719 C 43.234375 188.261719 43.28125 188.261719 43.28125 188.214844 C 43.953125 187.59375 44.621094 186.972656 45.242188 186.398438 C 45.671875 186.015625 46.101562 185.636719 46.53125 185.300781 C 46.292969 184.917969 45.957031 184.535156 45.625 184.203125 C 44.574219 183.199219 43.234375 182.625 41.898438 182.578125 C 41.851562 182.578125 41.753906 182.578125 41.707031 182.578125 C 40.371094 182.484375 39.222656 182.914062 38.457031 183.773438 Z M 45.480469 213.144531 C 45.625 213.144531 45.71875 213.191406 45.863281 213.191406 C 46.054688 213.191406 46.242188 213.191406 46.433594 213.191406 C 47.535156 213.097656 48.488281 212.667969 49.207031 211.902344 C 50.398438 210.613281 50.589844 208.75 49.921875 207.03125 C 49.777344 207.222656 49.585938 207.367188 49.445312 207.558594 C 48.488281 208.609375 47.628906 209.753906 46.769531 210.851562 C 46.625 211.042969 46.433594 211.140625 46.242188 211.1875 C 45.910156 211.28125 45.527344 211.140625 45.242188 210.851562 C 45.144531 210.757812 45.097656 210.710938 45.050781 210.613281 C 44.667969 210.039062 44.332031 209.46875 43.902344 208.988281 C 43.523438 208.558594 43.089844 208.179688 42.660156 207.84375 C 42.519531 207.699219 42.375 207.507812 42.375 207.367188 C 42.421875 206.886719 42.519531 206.363281 42.660156 205.886719 C 42.710938 205.695312 42.902344 205.597656 43.089844 205.648438 C 43.140625 205.648438 43.140625 205.648438 43.1875 205.695312 C 43.855469 205.980469 44.332031 206.457031 44.761719 206.984375 C 45.097656 207.414062 45.335938 207.890625 45.625 208.371094 C 45.671875 208.511719 45.8125 208.558594 45.957031 208.558594 C 46.054688 208.558594 46.101562 208.558594 46.195312 208.511719 C 46.195312 208.511719 46.242188 208.511719 46.242188 208.464844 C 46.914062 207.84375 47.582031 207.222656 48.203125 206.648438 C 48.535156 206.316406 48.917969 206.027344 49.300781 205.695312 C 49.109375 205.40625 48.824219 205.121094 48.585938 204.882812 C 47.628906 203.976562 46.433594 203.449219 45.242188 203.304688 C 45.097656 203.304688 45.003906 203.257812 44.859375 203.257812 C 44.667969 203.257812 44.476562 203.257812 44.285156 203.257812 C 43.1875 203.355469 42.230469 203.785156 41.515625 204.546875 C 39.796875 206.410156 40.128906 209.5625 42.328125 211.570312 C 43.089844 212.476562 44.285156 213 45.480469 213.144531 Z M 48.394531 233.921875 C 48.535156 233.921875 48.632812 233.96875 48.773438 233.96875 C 48.964844 233.96875 49.15625 233.96875 49.347656 233.96875 C 50.445312 233.875 51.402344 233.445312 52.117188 232.679688 C 53.839844 230.816406 53.503906 227.664062 51.304688 225.660156 C 50.351562 224.75 49.15625 224.226562 47.964844 224.082031 C 47.820312 224.082031 47.722656 224.035156 47.582031 224.035156 C 47.535156 224.035156 47.4375 224.035156 47.390625 224.035156 C 47.246094 224.035156 47.105469 224.035156 46.960938 224.035156 C 45.863281 224.128906 44.90625 224.558594 44.191406 225.324219 C 42.472656 227.1875 42.804688 230.339844 45.003906 232.34375 C 46.003906 233.253906 47.199219 233.777344 48.394531 233.921875 Z M 55.03125 253.40625 C 56.75 251.546875 56.417969 248.394531 54.21875 246.386719 C 53.167969 245.382812 51.832031 244.8125 50.496094 244.761719 C 50.445312 244.761719 50.351562 244.761719 50.304688 244.761719 C 49.0625 244.761719 47.914062 245.242188 47.152344 246.050781 C 45.433594 247.914062 45.765625 251.066406 47.964844 253.074219 C 50.160156 255.128906 53.3125 255.269531 55.03125 253.40625 Z M 137.324219 203.878906 L 135.269531 205.835938 C 136.511719 207.652344 137.65625 209.5625 138.707031 211.617188 C 148.644531 230.960938 145.300781 252.546875 131.304688 259.710938 C 130.542969 260.09375 129.777344 260.429688 128.964844 260.714844 L 129.253906 262.480469 L 129.253906 262.53125 C 129.253906 264.871094 128.296875 266.972656 126.816406 268.5 C 125.289062 270.074219 123.089844 271.078125 120.75 271.078125 L 44.90625 271.078125 C 40.226562 271.078125 36.40625 267.257812 36.359375 262.578125 L 19.164062 151.820312 L 19.164062 151.773438 C 19.164062 148.90625 20.597656 146.375 22.746094 144.847656 C 24.128906 143.84375 25.851562 143.222656 27.710938 143.222656 L 48.632812 143.222656 L 48.441406 142.269531 C 48.441406 141.648438 50.066406 139.785156 51.117188 139.257812 C 51.304688 138.589844 51.976562 138.113281 52.691406 138.207031 L 56.082031 138.207031 C 56.128906 138.207031 56.128906 138.160156 56.179688 138.160156 C 57.5625 135.007812 62.816406 132.8125 68.785156 132.8125 C 74.804688 132.8125 80.058594 135.054688 81.492188 138.160156 L 85.886719 138.160156 C 86.699219 138.066406 87.367188 138.636719 87.507812 139.449219 L 88.273438 143.222656 L 103.460938 143.222656 C 106.566406 143.222656 109.242188 144.894531 110.769531 147.332031 C 113.730469 148.191406 116.59375 149.765625 119.078125 152.105469 C 122.710938 155.496094 125 159.941406 125.480469 164.621094 C 125.957031 169.300781 124.621094 173.648438 121.609375 176.847656 C 120.175781 178.421875 118.410156 179.617188 116.453125 180.382812 C 116.453125 180.382812 116.453125 180.382812 116.40625 180.382812 L 117.980469 190.363281 C 123.28125 192.941406 128.390625 197.050781 132.738281 202.398438 L 134.363281 200.824219 L 134.265625 194.660156 L 151.460938 176.941406 L 151.222656 186.78125 L 161.253906 186.828125 L 144.488281 203.878906 Z M 130.828125 258.898438 C 144.34375 251.976562 147.496094 230.960938 137.800781 212.09375 C 136.796875 210.136719 135.699219 208.273438 134.507812 206.554688 L 130.683594 210.183594 L 130.636719 210.230469 L 130.351562 210.519531 L 130.015625 210.851562 L 126.578125 214.101562 L 122.757812 217.730469 L 122.277344 218.207031 L 121.417969 218.972656 L 119.9375 220.355469 L 119.222656 221.027344 L 116.738281 223.414062 C 116.929688 224.082031 116.929688 224.75 116.835938 225.417969 C 116.644531 226.519531 116.117188 227.378906 115.257812 227.808594 C 114.875 228 114.445312 228.09375 114.015625 228.09375 C 113.492188 228.09375 112.964844 227.949219 112.394531 227.664062 C 111.4375 227.1875 110.625 226.328125 110.050781 225.230469 C 109.480469 224.179688 109.289062 222.984375 109.429688 221.933594 C 109.621094 220.835938 110.148438 219.976562 111.007812 219.546875 C 111.867188 219.117188 112.871094 219.164062 113.875 219.640625 C 114.113281 219.785156 114.351562 219.925781 114.542969 220.070312 L 116.835938 217.824219 L 118.886719 215.820312 L 120.320312 214.433594 L 120.609375 214.148438 L 121.46875 213.289062 L 124.09375 210.710938 L 127.628906 207.269531 L 128.152344 206.746094 L 128.34375 206.601562 L 131.976562 203.066406 C 127.914062 198.003906 123.089844 194.039062 118.078125 191.460938 C 117.886719 191.367188 117.742188 191.269531 117.550781 191.222656 C 117.359375 191.128906 117.214844 191.03125 117.027344 190.984375 C 115.785156 190.410156 114.542969 189.886719 113.253906 189.503906 C 109.382812 188.261719 105.515625 187.832031 101.835938 188.40625 C 101.648438 188.453125 101.503906 188.453125 101.3125 188.5 C 101.121094 188.546875 100.976562 188.546875 100.785156 188.597656 C 99.546875 188.835938 98.304688 189.21875 97.109375 189.742188 C 96.582031 189.933594 96.105469 190.171875 95.582031 190.457031 C 95.101562 190.699219 94.671875 190.9375 94.242188 191.222656 C 89.277344 194.28125 85.886719 199.34375 84.214844 205.503906 C 84.117188 205.835938 84.023438 206.125 83.976562 206.457031 C 82.589844 212.140625 82.636719 218.683594 84.214844 225.371094 C 84.308594 225.707031 84.355469 225.992188 84.453125 226.328125 C 85.359375 229.957031 86.746094 233.632812 88.609375 237.265625 C 89.132812 238.265625 89.660156 239.222656 90.230469 240.179688 C 90.328125 240.367188 90.46875 240.558594 90.566406 240.75 C 90.660156 240.941406 90.804688 241.132812 90.898438 241.324219 C 98.636719 253.644531 110.433594 261.144531 121.179688 261.144531 C 122.949219 261.144531 124.667969 260.953125 126.339844 260.523438 C 126.816406 260.429688 127.246094 260.285156 127.722656 260.140625 C 127.773438 260.140625 127.820312 260.09375 127.867188 260.09375 C 127.960938 260.046875 128.105469 260.046875 128.203125 260 C 128.25 260 128.296875 259.949219 128.34375 259.949219 C 128.441406 259.902344 128.535156 259.855469 128.632812 259.855469 C 128.871094 259.761719 129.109375 259.664062 129.300781 259.570312 C 129.921875 259.328125 130.398438 259.140625 130.828125 258.898438 Z M 44.90625 270.125 L 103.84375 270.125 L 91.089844 252.644531 C 90.089844 251.640625 89.179688 250.542969 88.273438 249.445312 C 88.035156 249.109375 87.75 248.824219 87.507812 248.488281 C 85.835938 246.292969 84.261719 243.902344 82.875 241.417969 L 82.542969 240.988281 L 82.589844 240.941406 C 82.445312 240.65625 82.304688 240.417969 82.160156 240.128906 C 79.867188 235.640625 78.242188 231.007812 77.335938 226.375 C 77.289062 226.039062 77.191406 225.753906 77.144531 225.417969 C 76.285156 220.691406 76.191406 216.011719 76.859375 211.570312 C 77.144531 209.800781 77.527344 208.082031 78.050781 206.457031 C 78.148438 206.125 78.242188 205.835938 78.386719 205.503906 C 80.535156 199.34375 84.40625 194.660156 89.609375 191.988281 C 91.042969 191.269531 92.523438 190.699219 94.003906 190.316406 C 94.433594 190.078125 94.863281 189.789062 95.292969 189.597656 C 96.917969 188.789062 98.589844 188.167969 100.308594 187.785156 L 92.140625 176.609375 C 91.140625 175.507812 90.28125 174.316406 89.5625 173.121094 L 89.277344 172.738281 L 89.324219 172.691406 C 88.320312 170.875 87.605469 168.917969 87.269531 166.960938 C 87.03125 165.671875 86.9375 164.382812 86.9375 163.09375 C 87.03125 159.414062 88.320312 155.929688 90.851562 153.207031 C 92.332031 151.628906 94.050781 150.484375 95.964844 149.671875 C 96.203125 149.480469 96.394531 149.335938 96.632812 149.195312 C 100.214844 146.757812 104.796875 146.042969 109.289062 146.996094 C 107.902344 145.277344 105.753906 144.179688 103.414062 144.179688 L 88.417969 144.179688 L 89.324219 148.667969 L 89.847656 151.390625 L 89.847656 151.484375 C 89.800781 151.726562 89.707031 151.964844 89.609375 152.15625 C 89.230469 153.109375 86.457031 155.546875 85.695312 155.546875 L 85.359375 155.546875 L 85.503906 156.167969 C 85.40625 156.691406 84.929688 157.074219 84.40625 157.027344 L 51.066406 157.027344 C 50.445312 156.976562 49.875 156.644531 49.492188 156.167969 L 47.390625 145.707031 L 47.105469 144.179688 L 27.664062 144.179688 C 27.332031 144.179688 26.996094 144.226562 26.710938 144.226562 C 22.984375 144.703125 20.117188 147.855469 20.117188 151.675781 L 37.359375 262.433594 L 37.359375 262.480469 C 37.3125 266.734375 40.75 270.125 44.90625 270.125 Z M 49.585938 143.222656 L 49.683594 143.699219 L 49.777344 144.179688 L 50.113281 145.898438 L 51.738281 154.015625 C 51.785156 154.351562 52.023438 154.542969 52.308594 154.496094 L 85.695312 154.496094 C 86.027344 154.398438 87.128906 153.492188 87.9375 152.726562 L 55.03125 152.726562 C 54.984375 152.726562 54.9375 152.726562 54.886719 152.726562 C 54.171875 152.726562 53.503906 152.203125 53.40625 151.4375 L 52.308594 146.089844 L 51.925781 144.226562 L 51.832031 143.75 L 51.738281 143.269531 L 51.164062 140.308594 C 50.542969 140.835938 49.539062 141.886719 49.394531 142.269531 Z M 52.070312 139.976562 L 52.214844 140.691406 L 52.738281 143.222656 L 52.835938 143.699219 L 52.929688 144.179688 L 53.3125 146.136719 L 54.363281 151.296875 C 54.410156 151.628906 54.648438 151.820312 54.9375 151.773438 L 88.367188 151.773438 C 88.464844 151.773438 88.511719 151.773438 88.609375 151.726562 C 88.75 151.675781 88.894531 151.535156 88.941406 151.390625 L 88.941406 151.296875 L 88.558594 149.480469 L 88.367188 148.574219 L 87.460938 144.128906 L 87.367188 143.652344 L 87.269531 143.175781 L 86.554688 139.546875 C 86.507812 139.210938 86.265625 139.019531 85.980469 139.066406 L 80.871094 139.066406 L 80.773438 138.734375 C 79.675781 135.914062 74.660156 133.765625 68.785156 133.765625 C 64.152344 133.765625 60.046875 135.105469 57.992188 137.109375 C 57.707031 137.398438 57.46875 137.636719 57.277344 137.96875 C 57.132812 138.207031 56.988281 138.449219 56.847656 138.734375 C 56.847656 138.78125 56.800781 138.78125 56.800781 138.828125 L 56.703125 139.164062 L 52.5 139.164062 C 52.308594 139.164062 52.117188 139.210938 52.023438 139.402344 C 51.976562 139.449219 51.976562 139.496094 51.925781 139.59375 Z M 111.34375 148.574219 C 111.152344 148.523438 110.914062 148.429688 110.722656 148.382812 C 110.53125 148.332031 110.292969 148.238281 110.101562 148.191406 C 106.519531 147.234375 102.792969 147.378906 99.640625 148.714844 C 99.210938 148.90625 98.78125 149.097656 98.351562 149.335938 C 98.207031 149.382812 98.113281 149.480469 97.96875 149.527344 C 97.445312 149.8125 96.964844 150.148438 96.488281 150.53125 C 95.914062 150.960938 95.390625 151.4375 94.914062 151.964844 C 92.09375 154.972656 90.949219 158.984375 91.28125 163.09375 C 91.378906 164.382812 91.664062 165.671875 92.046875 166.960938 C 92.621094 168.777344 93.527344 170.542969 94.671875 172.214844 C 95.4375 173.3125 96.34375 174.363281 97.394531 175.320312 C 100.882812 178.566406 105.230469 180.429688 109.671875 180.574219 C 110.242188 180.574219 110.816406 180.574219 111.390625 180.523438 C 112.773438 180.429688 114.0625 180.140625 115.304688 179.761719 C 115.449219 179.710938 115.59375 179.664062 115.785156 179.617188 C 115.832031 179.617188 115.878906 179.570312 115.925781 179.570312 C 116.023438 179.523438 116.117188 179.472656 116.214844 179.425781 C 116.644531 179.234375 117.074219 179.042969 117.457031 178.804688 C 117.980469 178.519531 118.457031 178.183594 118.9375 177.851562 C 119.605469 177.371094 120.226562 176.800781 120.847656 176.179688 C 123.617188 173.167969 124.90625 169.109375 124.476562 164.714844 C 124 160.273438 121.847656 156.070312 118.363281 152.824219 C 116.308594 150.863281 113.875 149.433594 111.34375 148.574219 Z M 83.355469 205.503906 C 84.785156 200.105469 87.507812 195.472656 91.378906 192.226562 C 90.898438 192.417969 90.46875 192.609375 89.992188 192.847656 C 85.074219 195.378906 81.445312 199.773438 79.34375 205.503906 C 79.246094 205.835938 79.152344 206.125 79.007812 206.457031 C 78.484375 208.128906 78.050781 209.851562 77.765625 211.710938 C 77.097656 216.105469 77.242188 220.738281 78.050781 225.417969 C 78.101562 225.753906 78.195312 226.039062 78.242188 226.375 C 79.152344 230.863281 80.726562 235.355469 82.972656 239.699219 C 83.164062 240.035156 83.304688 240.367188 83.496094 240.703125 C 83.546875 240.796875 83.59375 240.847656 83.640625 240.941406 C 85.121094 243.664062 86.792969 246.195312 88.65625 248.535156 C 88.894531 248.871094 89.179688 249.15625 89.417969 249.492188 C 90.183594 250.398438 90.949219 251.257812 91.761719 252.070312 C 95.054688 255.460938 98.734375 258.230469 102.648438 260.238281 C 110.003906 264.011719 117.359375 264.582031 123.617188 262.003906 C 122.851562 262.101562 122.089844 262.148438 121.324219 262.148438 C 112.535156 262.148438 103.03125 257.324219 95.53125 248.964844 C 95.390625 248.824219 95.292969 248.679688 95.152344 248.535156 C 93.191406 246.292969 91.332031 243.808594 89.707031 241.085938 C 89.609375 240.894531 89.46875 240.703125 89.371094 240.511719 C 89.324219 240.464844 89.324219 240.367188 89.277344 240.320312 C 88.800781 239.460938 88.320312 238.648438 87.84375 237.742188 C 85.933594 234.015625 84.5 230.195312 83.546875 226.375 C 83.449219 226.039062 83.402344 225.753906 83.304688 225.417969 C 81.777344 218.734375 81.730469 212.238281 83.066406 206.507812 C 83.210938 206.125 83.304688 205.835938 83.355469 205.503906 Z M 90.375 172.597656 C 91.089844 173.789062 91.902344 174.9375 92.859375 176.035156 C 93.242188 176.464844 93.621094 176.847656 94.050781 177.277344 C 97.539062 180.523438 101.886719 182.386719 106.328125 182.53125 C 108.191406 182.578125 110.003906 182.339844 111.628906 181.8125 C 112.011719 181.671875 112.394531 181.527344 112.773438 181.382812 C 112.394531 181.433594 111.960938 181.480469 111.53125 181.527344 C 111.101562 181.574219 110.671875 181.574219 110.242188 181.574219 C 110.050781 181.574219 109.8125 181.574219 109.621094 181.574219 C 104.941406 181.433594 100.355469 179.425781 96.726562 176.035156 C 95.484375 174.890625 94.433594 173.597656 93.527344 172.261719 C 92.429688 170.589844 91.570312 168.777344 90.996094 166.960938 C 90.613281 165.671875 90.375 164.382812 90.28125 163.09375 C 89.945312 159.128906 90.996094 155.257812 93.433594 152.203125 C 92.761719 152.679688 92.140625 153.253906 91.519531 153.875 C 89.132812 156.40625 87.9375 159.699219 87.84375 163.09375 C 87.796875 164.382812 87.890625 165.671875 88.179688 166.960938 C 88.558594 168.824219 89.230469 170.636719 90.230469 172.40625 C 90.328125 172.453125 90.375 172.5 90.375 172.597656 Z M 90.375 172.597656 " fill-opacity="1" fill-rule="nonzero"/></g></svg>